<svg width="48" height="48" viewBox="0 0 48 48" fill="none" xmlns="http://www.w3.org/2000/svg">
<g clip-path="url(#clip0_102_12)">
<path d="M24 46.8293C36.6083 46.8293 46.8293 36.6083 46.8293 24C46.8293 11.3917 36.6083 1.17073 24 1.17073C11.3918 1.17073 1.17075 11.3917 1.17075 24C1.17075 36.6083 11.3918 46.8293 24 46.8293Z" fill="#F99941" stroke="white" stroke-width="2"/>
<path d="M24.2927 33.3659C29.9502 33.3659 34.5366 29.1726 34.5366 24C34.5366 18.8274 29.9502 14.6341 24.2927 14.6341C18.6351 14.6341 14.0488 18.8274 14.0488 24C14.0488 29.1726 18.6351 33.3659 24.2927 33.3659Z" fill="#FFC46B"/>
<path d="M4.51889 16.3668C4.51889 15.0135 4.33313 14.0183 3.96162 13.3815C3.59011 12.7181 2.84709 12.3863 1.73255 12.3863H1.3345V11.1922H18.8885C21.1441 11.1922 22.2719 12.2536 22.2719 14.3766V17.76H21.0777C21.0777 16.1147 20.6531 14.9073 19.804 14.1378C18.9813 13.3682 17.7474 12.9834 16.1021 12.9834H9.69354V22.9346H20.0428V24.7259H9.69354V35.6722H16.5002C18.0128 35.6722 19.2732 35.3405 20.2816 34.6771C21.29 33.9871 22.1259 32.8062 22.7894 31.1344L23.8641 31.5325L22.7097 34.6771C22.3647 35.6324 21.9534 36.3356 21.4758 36.7867C20.9981 37.2379 20.2551 37.4634 19.2467 37.4634H4.51889V16.3668ZM25.8388 36.1897L40.6462 12.9436H32.0085C30.5224 12.9436 29.3814 13.3284 28.5853 14.098C27.8157 14.841 27.4309 16.0617 27.4309 17.76H26.2368V14.3766C26.2368 12.2536 27.3646 11.1922 29.6202 11.1922H47.7314L32.1279 35.6722H47.5324V37.4634H25.8388V36.1897Z" fill="#171717"/>
</g>
<defs>
<clipPath id="clip0_102_12">
<rect width="48" height="48" fill="white"/>
</clipPath>
</defs>
</svg>
